<svg width="312" height="70" viewBox="0 0 312 70" fill="none" xmlns="http://www.w3.org/2000/svg">
<g clip-path="url(#clip0)">
<path d="M30.4108 40.5726H12.9701C12.1974 40.5726 11.5903 39.9686 11.5903 39.2V21.2471C11.5903 20.4784 10.9832 19.8745 10.2105 19.8745H1.3798C0.607111 19.8745 0 20.4784 0 21.2471V68.0235C0 68.7922 0.607111 69.3961 1.3798 69.3961H10.2105C10.9832 69.3961 11.5903 68.7922 11.5903 68.0235V51.4431C11.5903 50.6745 12.1974 50.0706 12.9701 50.0706H30.4108C31.1834 50.0706 31.7906 50.6745 31.7906 51.4431V68.0235C31.7906 68.7922 32.3977 69.3961 33.1704 69.3961H42.0011C42.7738 69.3961 43.3809 68.7922 43.3809 68.0235V21.2471C43.3809 20.4784 42.7738 19.8745 42.0011 19.8745H33.1704C32.3977 19.8745 31.7906 20.4784 31.7906 21.2471V39.1451C31.7906 39.9137 31.1834 40.5726 30.4108 40.5726Z" fill="#FFFFFE"/>
<path d="M93.6607 26.6275C91.3978 24.3765 88.6934 22.5647 85.4923 21.2471C82.2912 19.9294 78.8141 19.2706 74.8955 19.2706C71.032 19.2706 67.4997 19.9294 64.2986 21.1922C61.0975 22.5098 58.3931 24.2667 56.1302 26.5177C53.8673 28.7686 52.1012 31.4588 50.887 34.5334C49.6175 37.6079 49.0104 40.9569 49.0104 44.5255C49.0104 48.0941 49.6175 51.4431 50.887 54.5176C52.1564 57.5922 53.8673 60.2824 56.1302 62.5334C58.3931 64.7843 61.1527 66.5961 64.2986 67.9137C67.4997 69.2314 71.032 69.8353 74.8955 69.8353C78.7589 69.8353 82.2912 69.1765 85.4923 67.9137C88.6934 66.5961 91.3978 64.8392 93.6607 62.5334C95.9236 60.2275 97.6897 57.5922 98.9039 54.5176C100.118 51.4431 100.78 48.0941 100.78 44.5255C100.78 40.9569 100.173 37.6628 98.9039 34.5882C97.6897 31.5686 95.9236 28.8784 93.6607 26.6275ZM87.9759 51.2235C87.3136 53.2 86.4306 54.8471 85.2163 56.2196C84.0021 57.5922 82.5671 58.6353 80.801 59.349C79.09 60.0628 77.1031 60.4471 74.8955 60.4471C72.6878 60.4471 70.7009 60.0628 68.9347 59.349C67.1686 58.6353 65.7336 57.5922 64.5194 56.2196C63.3051 54.8471 62.4221 53.2 61.7598 51.2235C61.0975 49.2471 60.8215 47.051 60.8215 44.5804C60.8215 42.1098 61.1526 39.9137 61.7598 37.9922C62.4221 36.0157 63.3051 34.3686 64.5194 32.9961C65.7336 31.6235 67.1686 30.5804 68.9347 29.8667C70.7009 29.153 72.6878 28.7686 74.8955 28.7686C77.1031 28.7686 79.09 29.153 80.801 29.8667C82.5119 30.5804 84.0021 31.6235 85.2163 32.9961C86.4306 34.3686 87.3136 36.0157 87.9759 37.9922C88.6382 39.9686 88.9142 42.1647 88.9142 44.5804C88.9694 47.051 88.6382 49.302 87.9759 51.2235Z" fill="#FFFFFE"/>
<path d="M102.271 28.9882H113.475C114.247 28.9882 114.854 29.5922 114.854 30.3608V68.0235C114.854 68.7922 115.462 69.3961 116.234 69.3961H125.01C125.782 69.3961 126.39 68.7922 126.39 68.0235V30.3608C126.39 29.5922 126.997 28.9882 127.769 28.9882H138.973C139.746 28.9882 140.353 28.3843 140.353 27.6157V21.2471C140.353 20.4784 139.746 19.8745 138.973 19.8745H102.215C101.443 19.8745 100.836 20.4784 100.836 21.2471V27.5608C100.836 28.3294 101.498 28.9882 102.271 28.9882Z" fill="#FFFFFE"/>
<path d="M147.418 69.3961H176.669C177.442 69.3961 178.049 68.7922 178.049 68.0235V61.9843C178.049 61.2157 177.442 60.6118 176.669 60.6118H159.008C158.235 60.6118 157.628 60.0078 157.628 59.2392V50.2353C157.628 49.4667 158.235 48.8627 159.008 48.8627H174.903C175.676 48.8627 176.283 48.2588 176.283 47.4902V41.7804C176.283 41.0118 175.676 40.4078 174.903 40.4078H159.008C158.235 40.4078 157.628 39.8039 157.628 39.0353V30.251C157.628 29.4824 158.235 28.8784 159.008 28.8784H176.669C177.442 28.8784 178.049 28.2745 178.049 27.5059V21.4667C178.049 20.698 177.442 20.0941 176.669 20.0941H147.418C146.645 20.0941 146.038 20.698 146.038 21.4667V68.2431C145.983 68.7372 146.645 69.3961 147.418 69.3961Z" fill="#FFFFFE"/>
<path d="M281.313 69.3961H310.565C311.338 69.3961 311.945 68.7922 311.945 68.0235V61.9843C311.945 61.2157 311.338 60.6118 310.565 60.6118H292.904C292.131 60.6118 291.524 60.0078 291.524 59.2392V50.2353C291.524 49.4667 292.131 48.8627 292.904 48.8627H308.854C309.627 48.8627 310.234 48.2588 310.234 47.4902V41.7804C310.234 41.0118 309.627 40.4078 308.854 40.4078H292.959C292.186 40.4078 291.579 39.8039 291.579 39.0353V30.251C291.579 29.4824 292.186 28.8784 292.959 28.8784H310.62C311.393 28.8784 312 28.2745 312 27.5059V21.4667C312 20.698 311.393 20.0941 310.62 20.0941H281.369C280.596 20.0941 279.989 20.698 279.989 21.4667V68.2431C279.934 68.7372 280.541 69.3961 281.313 69.3961Z" fill="#FFFFFE"/>
<path d="M270.551 44.5255C269.502 43.4824 268.343 42.6588 267.019 42C265.694 41.3412 264.314 40.7922 262.934 40.298C261.555 39.8039 260.175 39.3647 258.85 38.9804C257.526 38.5961 256.311 38.1569 255.318 37.6627C254.269 37.1686 253.441 36.6196 252.834 35.9608C252.172 35.302 251.896 34.4784 251.896 33.4902C251.896 31.9529 252.448 30.6902 253.497 29.7569C254.545 28.8235 256.146 28.3843 258.353 28.3843C259.623 28.3843 260.727 28.549 261.72 28.8784C262.714 29.2078 263.597 29.5922 264.314 29.9765C265.087 30.3608 265.749 30.7451 266.356 31.0745C266.963 31.4039 267.515 31.5686 268.067 31.5686C268.674 31.5686 269.171 31.4588 269.502 31.1843C269.889 30.9098 270.22 30.5255 270.551 29.9765L272.869 25.6392C273.2 25.0353 273.035 24.3216 272.483 23.8823C271.82 23.3882 271.103 22.8941 270.385 22.4549C269.281 21.7961 268.067 21.2471 266.743 20.8079C265.418 20.3686 264.093 19.9843 262.603 19.7647C261.168 19.5451 259.678 19.4353 258.133 19.4353C255.373 19.4353 252.945 19.8745 250.847 20.698C248.75 21.5216 246.929 22.6196 245.494 23.9922C244.059 25.3647 242.955 26.9569 242.182 28.7137C241.41 30.4706 241.078 32.2824 241.078 34.149C241.078 36.4549 241.41 38.4314 242.017 39.9686C242.679 41.5608 243.507 42.8784 244.555 43.9216C245.604 44.9647 246.763 45.8431 248.088 46.4471C249.412 47.1059 250.737 47.6549 252.172 48.0941C253.552 48.5333 254.932 48.9176 256.256 49.3019C257.581 49.6863 258.74 50.0706 259.788 50.5647C260.837 51.0588 261.665 51.6627 262.327 52.3765C262.99 53.0902 263.266 54.0235 263.266 55.1765C263.266 57.1529 262.658 58.6353 261.499 59.5686C260.34 60.5019 258.685 60.9412 256.587 60.9412C255.042 60.9412 253.717 60.7215 252.558 60.2823C251.399 59.8431 250.406 59.4039 249.523 58.8549C248.64 58.3608 247.867 57.8667 247.149 57.4275C246.432 56.9882 245.77 56.7686 245.107 56.7686C244.555 56.7686 244.114 56.8784 243.617 57.153C243.176 57.4275 242.789 57.702 242.569 58.1412L239.754 62.5333C239.367 63.1373 239.478 63.9059 240.03 64.3451C240.802 65.0039 241.63 65.6078 242.569 66.1568C243.893 66.9255 245.328 67.6392 246.818 68.1882C248.308 68.7921 249.854 69.2314 251.51 69.5059C253.11 69.8353 254.711 70 256.256 70C259.071 70 261.61 69.5608 263.817 68.7372C266.025 67.8588 267.902 66.7059 269.447 65.2235C270.937 63.7412 272.096 61.9843 272.924 60.0078C273.697 58.0314 274.138 55.8902 274.138 53.5843C274.138 51.4981 273.807 49.7412 273.2 48.3137C272.427 46.7765 271.6 45.5137 270.551 44.5255Z" fill="#FFFFFE"/>
<path d="M210.281 0.329412C209.785 -0.109804 209.012 -0.109804 208.46 0.329412L185.997 19.2706C185.61 19.6 185.39 20.0941 185.39 20.6431V68.0235C185.39 68.7922 185.997 69.3961 186.769 69.3961H213.979C214.752 69.3961 215.359 68.7922 215.359 68.0235V61.6549C215.359 60.8863 214.752 60.2823 213.979 60.2823H198.305C197.532 60.2823 196.925 59.6784 196.925 58.9098V24.2667C196.925 23.8275 197.146 23.4431 197.477 23.1686L208.515 14.4941C209.012 14.1098 209.729 14.1098 210.226 14.4941L221.32 23.2235C221.651 23.498 221.872 23.8824 221.872 24.3216V68.0784C221.872 68.8471 222.479 69.451 223.251 69.451H232.082C232.855 69.451 233.462 68.8471 233.462 68.0784V20.698C233.462 20.149 233.241 19.6549 232.855 19.3255L210.281 0.329412Z" fill="#FFFFFE"/>
</g>
<defs>
<clipPath id="clip0">
<rect width="312" height="70" fill="white"/>
</clipPath>
</defs>
</svg>
